<?xml version="1.0" standalone="no"?>
<!DOCTYPE svg PUBLIC "-//W3C//DTD SVG 1.1//EN" "http://www.w3.org/Graphics/SVG/1.1/DTD/svg11.dtd">
<svg xmlns="http://www.w3.org/2000/svg" xmlns:xlink="http://www.w3.org/1999/xlink" width="375" zoomAndPan="magnify" viewBox="0 0 375 374.999991" height="375" preserveAspectRatio="xMidYMid meet" version="1.0"><defs><g/></defs><g fill="#222222" fill-opacity="1"><g transform="translate(5.68925, 193.790538)"><g><path d="M 37.34375 0.8125 C 34.507812 0.8125 31.96875 0.191406 29.71875 -1.046875 C 27.476562 -2.285156 25.707031 -4.003906 24.40625 -6.203125 C 23.101562 -8.398438 22.453125 -10.894531 22.453125 -13.6875 L 22.453125 -34.3125 C 22.453125 -35.03125 22.269531 -35.679688 21.90625 -36.265625 C 21.550781 -36.847656 21.078125 -37.316406 20.484375 -37.671875 C 19.898438 -38.035156 19.25 -38.21875 18.53125 -38.21875 C 17.8125 -38.21875 17.160156 -38.035156 16.578125 -37.671875 C 15.992188 -37.316406 15.53125 -36.847656 15.1875 -36.265625 C 14.851562 -35.679688 14.6875 -35.03125 14.6875 -34.3125 L 14.6875 0 L 3.640625 0 L 3.640625 -33.5 C 3.640625 -36.332031 4.28125 -38.828125 5.5625 -40.984375 C 6.84375 -43.140625 8.617188 -44.847656 10.890625 -46.109375 C 13.160156 -47.367188 15.707031 -48 18.53125 -48 C 21.40625 -48 23.96875 -47.367188 26.21875 -46.109375 C 28.46875 -44.847656 30.242188 -43.140625 31.546875 -40.984375 C 32.847656 -38.828125 33.5 -36.332031 33.5 -33.5 L 33.5 -12.875 C 33.5 -12.15625 33.675781 -11.488281 34.03125 -10.875 C 34.394531 -10.269531 34.859375 -9.800781 35.421875 -9.46875 C 35.984375 -9.132812 36.601562 -8.96875 37.28125 -8.96875 C 38 -8.96875 38.660156 -9.132812 39.265625 -9.46875 C 39.867188 -9.800781 40.347656 -10.269531 40.703125 -10.875 C 41.066406 -11.488281 41.25 -12.15625 41.25 -12.875 L 41.25 -47.1875 L 52.234375 -47.1875 L 52.234375 -13.6875 C 52.234375 -10.894531 51.582031 -8.398438 50.28125 -6.203125 C 48.976562 -4.003906 47.203125 -2.285156 44.953125 -1.046875 C 42.710938 0.191406 40.175781 0.8125 37.34375 0.8125 Z M 37.34375 0.8125 "/></g></g></g><g fill="#222222" fill-opacity="1"><g transform="translate(56.099315, 193.790538)"><g><path d="M 16.71875 0 C 14.0625 0 11.65625 -0.613281 9.5 -1.84375 C 7.34375 -3.082031 5.625 -4.742188 4.34375 -6.828125 C 3.0625 -8.921875 2.421875 -11.296875 2.421875 -13.953125 C 2.421875 -15.929688 2.859375 -17.785156 3.734375 -19.515625 C 4.617188 -21.242188 5.800781 -22.738281 7.28125 -24 C 5.84375 -25.207031 4.707031 -26.640625 3.875 -28.296875 C 3.039062 -29.960938 2.625 -31.71875 2.625 -33.5625 C 2.625 -36.175781 3.253906 -38.503906 4.515625 -40.546875 C 5.773438 -42.585938 7.457031 -44.203125 9.5625 -45.390625 C 11.675781 -46.585938 14.015625 -47.1875 16.578125 -47.1875 L 36.46875 -47.1875 L 36.46875 -37.75 L 18.328125 -37.75 C 17.472656 -37.75 16.6875 -37.546875 15.96875 -37.140625 C 15.25 -36.734375 14.675781 -36.191406 14.25 -35.515625 C 13.820312 -34.847656 13.609375 -34.0625 13.609375 -33.15625 C 13.609375 -32.3125 13.820312 -31.539062 14.25 -30.84375 C 14.675781 -30.144531 15.25 -29.601562 15.96875 -29.21875 C 16.6875 -28.832031 17.472656 -28.640625 18.328125 -28.640625 L 34.171875 -28.640625 L 34.171875 -19.203125 L 18.671875 -19.203125 C 17.722656 -19.203125 16.867188 -18.976562 16.109375 -18.53125 C 15.347656 -18.082031 14.738281 -17.5 14.28125 -16.78125 C 13.832031 -16.0625 13.609375 -15.234375 13.609375 -14.296875 C 13.609375 -13.390625 13.832031 -12.566406 14.28125 -11.828125 C 14.738281 -11.085938 15.347656 -10.515625 16.109375 -10.109375 C 16.867188 -9.703125 17.722656 -9.5 18.671875 -9.5 L 36.46875 -9.5 L 36.46875 0 Z M 16.71875 0 "/></g></g></g><g fill="#222222" fill-opacity="1"><g transform="translate(89.660726, 193.790538)"><g><path d="M 2.90625 0 L 15.234375 -20.296875 C 13.035156 -21.191406 11.148438 -22.390625 9.578125 -23.890625 C 8.003906 -25.398438 6.773438 -27.207031 5.890625 -29.3125 C 5.015625 -31.425781 4.578125 -33.8125 4.578125 -36.46875 L 4.578125 -47.1875 L 15.90625 -47.1875 L 15.90625 -35.796875 C 15.90625 -34.628906 16.140625 -33.535156 16.609375 -32.515625 C 17.085938 -31.503906 17.765625 -30.671875 18.640625 -30.015625 C 19.515625 -29.367188 20.535156 -28.957031 21.703125 -28.78125 L 32.625 -47.1875 L 45.234375 -47.1875 L 32.890625 -27.296875 C 35.359375 -26.578125 37.515625 -25.453125 39.359375 -23.921875 C 41.203125 -22.398438 42.617188 -20.523438 43.609375 -18.296875 C 44.597656 -16.078125 45.09375 -13.570312 45.09375 -10.78125 L 45.09375 0 L 33.765625 0 L 33.765625 -11.328125 C 33.765625 -13.347656 33.132812 -15.066406 31.875 -16.484375 C 30.625 -17.898438 28.875 -18.628906 26.625 -18.671875 L 15.5 0 Z M 2.90625 0 "/></g></g></g><g fill="#222222" fill-opacity="1"><g transform="translate(131.646464, 193.790538)"><g><path d="M 28.375 0 C 25.5 0 22.972656 -0.640625 20.796875 -1.921875 C 18.617188 -3.203125 16.910156 -4.921875 15.671875 -7.078125 C 14.429688 -9.234375 13.8125 -11.640625 13.8125 -14.296875 L 13.8125 -37.75 L 1.015625 -37.75 L 1.015625 -47.1875 L 37.875 -47.1875 L 37.875 -37.75 L 25.140625 -37.75 L 25.140625 -13.28125 C 25.140625 -12.25 25.5 -11.347656 26.21875 -10.578125 C 26.9375 -9.816406 27.835938 -9.4375 28.921875 -9.4375 L 32.625 -9.4375 L 32.625 0 Z M 28.375 0 "/></g></g></g><g fill="#222222" fill-opacity="1"><g transform="translate(165.005692, 193.790538)"><g><path d="M 4.109375 0 L 4.109375 -47.1875 L 31.484375 -47.1875 C 33.816406 -47.1875 35.9375 -46.664062 37.84375 -45.625 C 39.757812 -44.59375 41.289062 -43.15625 42.4375 -41.3125 C 43.582031 -39.476562 44.15625 -37.300781 44.15625 -34.78125 C 44.15625 -33.300781 43.875 -31.882812 43.3125 -30.53125 C 42.75 -29.1875 41.960938 -27.992188 40.953125 -26.953125 C 39.941406 -25.921875 38.785156 -25.09375 37.484375 -24.46875 C 39.003906 -23.84375 40.359375 -22.941406 41.546875 -21.765625 C 42.742188 -20.597656 43.691406 -19.25 44.390625 -17.71875 C 45.085938 -16.195312 45.4375 -14.5625 45.4375 -12.8125 C 45.4375 -10.25 44.835938 -8 43.640625 -6.0625 C 42.453125 -4.132812 40.867188 -2.640625 38.890625 -1.578125 C 36.910156 -0.523438 34.707031 0 32.28125 0 Z M 15.4375 -9.375 L 29.328125 -9.375 C 30.265625 -9.375 31.101562 -9.597656 31.84375 -10.046875 C 32.59375 -10.492188 33.191406 -11.097656 33.640625 -11.859375 C 34.085938 -12.628906 34.3125 -13.460938 34.3125 -14.359375 C 34.3125 -15.296875 34.085938 -16.132812 33.640625 -16.875 C 33.191406 -17.625 32.59375 -18.222656 31.84375 -18.671875 C 31.101562 -19.117188 30.265625 -19.34375 29.328125 -19.34375 L 15.4375 -19.34375 Z M 15.4375 -28.375 L 28.171875 -28.375 C 29.078125 -28.375 29.875 -28.585938 30.5625 -29.015625 C 31.257812 -29.441406 31.8125 -30.003906 32.21875 -30.703125 C 32.625 -31.398438 32.828125 -32.175781 32.828125 -33.03125 C 32.828125 -33.925781 32.625 -34.722656 32.21875 -35.421875 C 31.8125 -36.117188 31.257812 -36.679688 30.5625 -37.109375 C 29.875 -37.535156 29.078125 -37.75 28.171875 -37.75 L 15.4375 -37.75 Z M 15.4375 -28.375 "/></g></g></g><g fill="#222222" fill-opacity="1"><g transform="translate(207.328412, 193.790538)"><g><path d="M 18.125 0 C 15.207031 0 12.644531 -0.648438 10.4375 -1.953125 C 8.238281 -3.253906 6.53125 -4.984375 5.3125 -7.140625 C 4.101562 -9.296875 3.5 -11.679688 3.5 -14.296875 L 3.5 -47.1875 L 14.828125 -47.1875 L 14.828125 -13.484375 C 14.828125 -12.398438 15.207031 -11.453125 15.96875 -10.640625 C 16.738281 -9.835938 17.6875 -9.4375 18.8125 -9.4375 L 31.28125 -9.4375 L 31.28125 0 Z M 18.125 0 "/></g></g></g><g fill="#222222" fill-opacity="1"><g transform="translate(234.352535, 193.790538)"><g><path d="M 26.96875 0.875 C 23.1875 0.875 19.769531 0.242188 16.71875 -1.015625 C 13.664062 -2.273438 11.035156 -4.023438 8.828125 -6.265625 C 6.628906 -8.515625 4.929688 -11.117188 3.734375 -14.078125 C 2.546875 -17.046875 1.953125 -20.238281 1.953125 -23.65625 C 1.953125 -27.070312 2.546875 -30.265625 3.734375 -33.234375 C 4.929688 -36.203125 6.617188 -38.796875 8.796875 -41.015625 C 10.972656 -43.242188 13.597656 -44.972656 16.671875 -46.203125 C 19.753906 -47.441406 23.1875 -48.0625 26.96875 -48.0625 C 30.695312 -48.0625 34.097656 -47.441406 37.171875 -46.203125 C 40.253906 -44.972656 42.882812 -43.242188 45.0625 -41.015625 C 47.238281 -38.796875 48.929688 -36.191406 50.140625 -33.203125 C 51.359375 -30.210938 51.96875 -27.03125 51.96875 -23.65625 C 51.96875 -20.238281 51.359375 -17.046875 50.140625 -14.078125 C 48.929688 -11.117188 47.238281 -8.515625 45.0625 -6.265625 C 42.882812 -4.023438 40.253906 -2.273438 37.171875 -1.015625 C 34.097656 0.242188 30.695312 0.875 26.96875 0.875 Z M 26.96875 -8.765625 C 28.9375 -8.765625 30.765625 -9.132812 32.453125 -9.875 C 34.140625 -10.613281 35.585938 -11.65625 36.796875 -13 C 38.015625 -14.351562 38.957031 -15.9375 39.625 -17.75 C 40.300781 -19.570312 40.640625 -21.539062 40.640625 -23.65625 C 40.640625 -25.769531 40.300781 -27.722656 39.625 -29.515625 C 38.957031 -31.316406 38.015625 -32.890625 36.796875 -34.234375 C 35.585938 -35.585938 34.140625 -36.632812 32.453125 -37.375 C 30.765625 -38.113281 28.9375 -38.484375 26.96875 -38.484375 C 24.9375 -38.484375 23.085938 -38.113281 21.421875 -37.375 C 19.765625 -36.632812 18.316406 -35.585938 17.078125 -34.234375 C 15.847656 -32.890625 14.90625 -31.304688 14.25 -29.484375 C 13.601562 -27.671875 13.28125 -25.726562 13.28125 -23.65625 C 13.28125 -21.539062 13.601562 -19.570312 14.25 -17.75 C 14.90625 -15.9375 15.847656 -14.351562 17.078125 -13 C 18.316406 -11.65625 19.765625 -10.613281 21.421875 -9.875 C 23.085938 -9.132812 24.9375 -8.765625 26.96875 -8.765625 Z M 26.96875 -8.765625 "/></g></g></g><g fill="#222222" fill-opacity="1"><g transform="translate(282.673378, 193.790538)"><g><path d="M 27.03125 0 C 23.164062 0 19.679688 -0.59375 16.578125 -1.78125 C 13.484375 -2.976562 10.851562 -4.65625 8.6875 -6.8125 C 6.53125 -8.96875 4.867188 -11.472656 3.703125 -14.328125 C 2.535156 -17.179688 1.953125 -20.269531 1.953125 -23.59375 C 1.953125 -26.914062 2.535156 -30.003906 3.703125 -32.859375 C 4.867188 -35.710938 6.539062 -38.21875 8.71875 -40.375 C 10.90625 -42.53125 13.535156 -44.203125 16.609375 -45.390625 C 19.691406 -46.585938 23.164062 -47.1875 27.03125 -47.1875 L 34.3125 -47.1875 L 34.3125 -37.75 L 27.296875 -37.75 C 25.179688 -37.75 23.257812 -37.390625 21.53125 -36.671875 C 19.800781 -35.953125 18.316406 -34.953125 17.078125 -33.671875 C 15.847656 -32.390625 14.90625 -30.894531 14.25 -29.1875 C 13.601562 -27.476562 13.28125 -25.613281 13.28125 -23.59375 C 13.28125 -21.570312 13.601562 -19.707031 14.25 -18 C 14.90625 -16.289062 15.847656 -14.796875 17.078125 -13.515625 C 18.316406 -12.234375 19.800781 -11.234375 21.53125 -10.515625 C 23.257812 -9.796875 25.179688 -9.4375 27.296875 -9.4375 L 34.3125 -9.4375 L 34.3125 0 Z M 27.03125 0 "/></g></g></g><g fill="#222222" fill-opacity="1"><g transform="translate(313.741179, 193.790538)"><g><path d="M 4.109375 0 L 4.109375 -47.1875 L 15.4375 -47.1875 L 15.4375 -28.109375 L 23.25 -28.109375 C 24.550781 -28.109375 25.753906 -28.375 26.859375 -28.90625 C 27.960938 -29.445312 28.828125 -30.257812 29.453125 -31.34375 C 30.085938 -32.425781 30.40625 -33.6875 30.40625 -35.125 L 30.40625 -47.1875 L 41.71875 -47.1875 L 41.71875 -35.046875 C 41.71875 -32.035156 41 -29.335938 39.5625 -26.953125 C 38.125 -24.578125 36.238281 -22.671875 33.90625 -21.234375 L 39.03125 -10.453125 C 39.164062 -10.085938 39.398438 -9.816406 39.734375 -9.640625 C 40.066406 -9.460938 40.4375 -9.375 40.84375 -9.375 L 45.09375 -9.375 L 45.09375 0 L 38.5625 0 C 36.082031 0 34.078125 -0.46875 32.546875 -1.40625 C 31.023438 -2.351562 29.859375 -3.660156 29.046875 -5.328125 L 22.65625 -18.671875 C 22.289062 -18.671875 21.953125 -18.671875 21.640625 -18.671875 C 21.328125 -18.671875 20.988281 -18.671875 20.625 -18.671875 L 15.4375 -18.671875 L 15.4375 0 Z M 4.109375 0 "/></g></g></g></svg>